<?xml version="1.0" ?><!DOCTYPE svg  PUBLIC '-//W3C//DTD SVG 1.1//EN'  'http://www.w3.org/Graphics/SVG/1.1/DTD/svg11.dtd'><svg enable-background="new 0 0 24 24" height="24px" id="Layer_1" version="1.1" viewBox="0 0 24 24" width="24px" xml:space="preserve" xmlns="http://www.w3.org/2000/svg" xmlns:xlink="http://www.w3.org/1999/xlink"><g><path d="M16,8.7c0.6,0.3,1.2,0.2,1.7-0.3c0.6-0.6,0.6-1.5,0-2.1c-0.6-0.6-1.5-0.6-2.1,0C15.1,6.7,15,7.4,15.3,8l-3.7,3.7L3.5,3.5   c-4.7,4.7-4.7,12.3,0,17c4.7,4.7,12.3,4.7,17,0l-8.1-8.1L16,8.7z M16.3,7c0.2-0.2,0.5-0.2,0.7,0c0.2,0.2,0.2,0.5,0,0.7   c-0.2,0.2-0.5,0.2-0.7,0C16.1,7.5,16.1,7.2,16.3,7z M4.9,19.1c-3.4-3.4-3.8-8.7-1.3-12.6l13.9,13.9C13.6,22.9,8.3,22.5,4.9,19.1z"/><path d="M16.5,0c-1.8,0-3.5,0.6-4.8,1.7c0,0-0.5,0.5-0.1,0.8s0.8-0.1,0.8-0.1C13.5,1.5,15,1,16.5,1C20.1,1,23,3.9,23,7.5   c0,1.5-0.5,3-1.4,4.1c0,0-0.4,0.5-0.1,0.8s0.9-0.1,0.9-0.1c1.1-1.3,1.7-3,1.7-4.8C24,3.4,20.6,0,16.5,0z"/><path d="M16.5,3c-1,0-1.9,0.3-2.6,0.9c0,0-0.4,0.5-0.1,0.8s0.8-0.1,0.8-0.1C15.1,4.2,15.8,4,16.5,4C18.4,4,20,5.6,20,7.5   c0,0.7-0.2,1.4-0.6,1.9c0,0-0.5,0.5-0.1,0.9s0.9-0.1,0.9-0.1C20.7,9.4,21,8.5,21,7.5C21,5,19,3,16.5,3z"/></g></svg>